# Blender 3.3.0
# www.blender.org
mtllib Building_10 (Blue).mtl
o Building_10_(Blue)
v 0.400001 0.800000 -0.699999
v -0.800000 0.000000 0.800000
v 0.400002 0.296000 -0.700000
v -0.700000 1.000000 0.700000
v -0.800000 0.000000 -0.800000
v -0.700000 1.000000 -0.700000
v 0.100001 0.799999 -0.700000
v 0.800000 0.000000 -0.800000
v 0.700000 1.000000 -0.700000
v 0.100002 0.295999 -0.700000
v 0.800000 0.000000 0.100000
v 0.100000 0.000000 0.800000
v -0.500004 0.800001 0.699996
v 0.058579 1.000000 0.700000
v 0.700000 1.000000 0.058579
v -0.500002 0.296001 0.699999
v -0.800000 1.000000 0.800000
v -0.800000 1.000000 -0.800000
v 0.800000 1.000000 -0.800000
v -0.200004 0.800002 0.699997
v -0.200002 0.296002 0.700000
v 0.800000 1.000000 0.100000
v 0.100000 1.000000 0.800000
v -0.800000 1.100000 0.800000
v -0.800000 1.100000 -0.800000
v 0.699998 0.800003 -0.199999
v 0.700002 0.296003 -0.199998
v 0.800000 1.100000 -0.800000
v 0.800000 1.100000 0.100000
v 0.100000 1.100000 0.800000
v 0.699999 0.800002 -0.499999
v -0.700000 1.100000 0.700000
v 0.700002 0.296002 -0.499998
v -0.700000 1.100000 -0.700000
v 0.700000 1.100000 -0.700000
v 0.700000 1.100000 0.058579
v -0.099999 0.799998 -0.700001
v 0.058579 1.100000 0.700000
v -0.099998 0.295998 -0.700001
v -0.399999 0.799997 -0.700001
v -0.399998 0.295997 -0.700002
v -0.700000 0.799997 -0.400005
v -0.700000 0.295997 -0.400002
v -0.700000 0.799998 -0.100005
v -0.700000 0.295998 -0.100002
v -0.700002 0.799998 0.099995
v -0.700002 0.295999 0.099998
v -0.700001 0.799999 0.399996
v -0.700002 0.295999 0.399998
v 0.232606 0.800003 0.525967
v 0.545965 0.800004 0.212610
v -0.800000 0.296000 0.399998
v -0.800000 0.800000 0.399995
v -0.800000 0.799999 0.099995
v -0.800000 0.799998 -0.100005
v -0.800000 0.799997 -0.400005
v -0.800000 0.295999 0.099998
v -0.800000 0.295998 -0.100002
v -0.800000 0.295997 -0.400002
v -0.399999 0.799998 -0.800000
v -0.399998 0.295998 -0.800000
v -0.099999 0.799999 -0.800000
v 0.400001 0.800000 -0.800000
v 0.100001 0.799999 -0.800000
v -0.099998 0.295999 -0.800000
v 0.400002 0.296001 -0.800000
v 0.100002 0.295999 -0.800000
v -0.500005 0.800002 0.800000
v -0.200005 0.800003 0.800000
v -0.200002 0.296003 0.800000
v -0.500002 0.296002 0.800000
v 0.800000 0.800004 -0.199998
v 0.800000 0.800003 -0.499998
v 0.800000 0.296004 -0.199998
v 0.800000 0.296003 -0.499998
v 0.303319 0.000000 0.596681
v 0.616678 0.000000 0.283322
v 0.303319 0.800004 0.596681
v 0.616677 0.800005 0.283323
v 0.232610 0.000000 0.525971
v 0.545969 0.000000 0.212613
vn -1.0000 -0.0000 -0.0000
vn -0.0000 -0.0000 -1.0000
vn -0.0000 -0.0000 1.0000
vn -0.0000 1.0000 -0.0000
vn 1.0000 -0.0000 -0.0000
vn 0.7071 -0.0000 0.7071
vn -0.7071 -0.0000 -0.7071
vn -0.0000 -1.0000 -0.0000
vn 0.7071 -0.0000 -0.7071
vn -0.7071 -0.0000 0.7071
vt 0.584373 0.912180
vt 0.816316 0.743157
vt 0.583915 0.913555
vt 0.584373 0.912180
vt 0.584373 0.914013
vt 0.584831 0.912180
vt 0.816164 0.743157
vt 0.585289 0.913555
vt 0.209151 0.676325
vt 0.622916 0.989207
vt 0.584373 0.912638
vt 0.209151 0.675987
vt 0.622916 0.989167
vt 0.816316 0.743309
vt 0.584373 0.913555
vt 0.584373 0.913097
vt 0.208813 0.675987
vt 0.622875 0.989167
vt 0.816316 0.743309
vt 0.584831 0.913555
vt 0.584373 0.913354
vt 0.584373 0.913755
vt 0.584373 0.912180
vt 0.816316 0.743157
vt 0.583915 0.913555
vt 0.208967 0.676325
vt 0.622894 0.989207
vt 0.208813 0.676171
vt 0.622875 0.989189
vt 0.584831 0.912180
vt 0.816164 0.743157
vt 0.585289 0.913555
vt 0.584831 0.912180
vt 0.584831 0.914013
vt 0.622865 0.989240
vt 0.584831 0.912638
vt 0.622865 0.989240
vt 0.584831 0.913097
vt 0.622865 0.989240
vt 0.816316 0.743309
vt 0.584373 0.913555
vt 0.816164 0.743309
vt 0.584831 0.913555
vt 0.584831 0.913354
vt 0.622865 0.989240
vt 0.584831 0.913755
vt 0.622865 0.989240
vt 0.622865 0.989240
vt 0.622865 0.989240
vt 0.584373 0.912180
vt 0.816316 0.743157
vt 0.583915 0.913555
vt 0.584831 0.912180
vt 0.816164 0.743157
vt 0.585289 0.913555
vt 0.622865 0.989240
vt 0.622865 0.989240
vt 0.622865 0.989240
vt 0.816316 0.743309
vt 0.584373 0.913555
vt 0.622916 0.989207
vt 0.816164 0.743309
vt 0.584831 0.913555
vt 0.622916 0.989167
vt 0.622875 0.989167
vt 0.622875 0.989189
vt 0.584373 0.912180
vt 0.816316 0.743157
vt 0.583915 0.913555
vt 0.622894 0.989207
vt 0.584831 0.912180
vt 0.816164 0.743157
vt 0.585289 0.913555
vt 0.816316 0.743309
vt 0.584373 0.913555
vt 0.816316 0.743309
vt 0.584831 0.913555
vt 0.584373 0.912180
vt 0.816316 0.743157
vt 0.583915 0.913555
vt 0.584831 0.912180
vt 0.816164 0.743157
vt 0.585289 0.913555
vt 0.816316 0.743309
vt 0.584373 0.913555
vt 0.816164 0.743309
vt 0.584831 0.913555
vt 0.584373 0.912180
vt 0.816316 0.743157
vt 0.583915 0.913555
vt 0.584831 0.912180
vt 0.816164 0.743157
vt 0.585289 0.913555
vt 0.816316 0.743309
vt 0.584373 0.913555
vt 0.816164 0.743309
vt 0.584831 0.913555
vt 0.584373 0.912180
vt 0.186016 0.528114
vt 0.583285 0.915196
vt 0.584373 0.913555
vt 0.186016 0.527398
vt 0.583587 0.915196
vt 0.584508 0.912295
vt 0.584831 0.913326
vt 0.584739 0.912295
vt 0.584373 0.913326
vt 0.584739 0.912381
vt 0.584373 0.912409
vt 0.583915 0.913326
vt 0.584739 0.912438
vt 0.584373 0.913326
vt 0.584739 0.912524
vt 0.584373 0.912409
vt 0.583915 0.913326
vt 0.584508 0.912381
vt 0.584831 0.912409
vt 0.585289 0.913326
vt 0.584508 0.912438
vt 0.584831 0.913326
vt 0.584508 0.912524
vt 0.584831 0.912409
vt 0.585289 0.913326
vt 0.584739 0.912753
vt 0.584373 0.913336
vt 0.584508 0.912753
vt 0.584831 0.913334
vt 0.584739 0.912839
vt 0.584373 0.912409
vt 0.583915 0.913335
vt 0.584739 0.912982
vt 0.584373 0.912409
vt 0.583915 0.913315
vt 0.584739 0.912896
vt 0.584373 0.913317
vt 0.584508 0.912839
vt 0.584831 0.912409
vt 0.585289 0.913331
vt 0.584508 0.912982
vt 0.584831 0.912409
vt 0.585289 0.913331
vt 0.584508 0.912896
vt 0.584831 0.913331
vt 0.584739 0.913927
vt 0.584373 0.912409
vt 0.583915 0.913320
vt 0.584739 0.913841
vt 0.584373 0.913321
vt 0.584508 0.913841
vt 0.584831 0.913324
vt 0.584508 0.913927
vt 0.584831 0.912409
vt 0.585289 0.913321
vt 0.584739 0.913268
vt 0.584373 0.912409
vt 0.583915 0.913326
vt 0.584739 0.913182
vt 0.584373 0.913326
vt 0.584508 0.913268
vt 0.584831 0.912409
vt 0.585289 0.913326
vt 0.584508 0.913182
vt 0.584831 0.913326
vt 0.584373 0.913639
vt 0.584744 0.912409
vt 0.584373 0.913459
vt 0.584744 0.913326
vt 0.584739 0.913639
vt 0.584373 0.912409
vt 0.583285 0.915045
vt 0.584739 0.913459
vt 0.584373 0.913326
vt 0.583587 0.915045
vt 0.584744 0.912180
vt 0.186595 0.528114
vt 0.584744 0.913555
vt 0.186595 0.527398
s 0
usemtl Texture
f 53/106/1 17/33/1 18/36/1 56/113/1 55/111/1 54/108/1
f 18/36/1 5/11/1 2/4/1 17/33/1 53/106/1 52/104/1 57/116/1 54/108/1 55/111/1 58/119/1 59/121/1 56/113/1
f 18/36/2 19/38/2 63/131/2 64/134/2 62/128/2 60/124/2
f 63/131/2 19/38/2 8/16/2 5/11/2 18/36/2 60/124/2 61/126/2 65/136/2 62/128/2 64/134/2 67/142/2 66/139/2
f 68/144/3 17/34/3 2/5/3 12/22/3 23/46/3 69/147/3 70/149/3 71/151/3
f 69/147/3 23/46/3 17/34/3 68/144/3
f 15/28/4 9/17/4 6/12/4 4/9/4 14/26/4
f 22/44/5 11/21/5 8/16/5 19/38/5 73/157/5 75/162/5 74/159/5 72/154/5
f 73/157/5 19/38/5 22/44/5 72/154/5
f 77/166/6 11/21/6 22/44/6 23/46/6 12/22/6 76/164/6 78/168/6 79/171/6
f 19/39/2 18/37/2 25/49/2 28/56/2
f 4/10/5 6/13/5 34/64/5 32/61/5
f 9/18/1 15/29/1 36/66/1 35/65/1
f 17/35/3 23/47/3 30/58/3 24/48/3
f 23/47/6 22/45/6 29/57/6 30/58/6
f 32/61/4 34/64/4 25/49/4 24/48/4
f 34/64/4 35/65/4 28/56/4 25/49/4
f 36/66/4 38/70/4 30/58/4 29/57/4
f 35/65/4 36/66/4 29/57/4 28/56/4
f 38/70/4 32/61/4 24/48/4 30/58/4
f 14/27/2 4/10/2 32/61/2 38/70/2
f 18/37/1 17/35/1 24/48/1 25/49/1
f 6/13/3 9/18/3 35/65/3 34/64/3
f 22/45/5 19/39/5 28/56/5 29/57/5
f 15/29/7 14/27/7 38/70/7 36/66/7
f 66/140/1 3/6/1 1/1/1 63/132/1
f 64/135/5 7/15/5 10/20/5 67/143/5
f 7/14/2 1/2/2 3/7/2 10/19/2
f 1/3/8 7/15/8 64/135/8 63/133/8
f 67/143/4 10/20/4 3/8/4 66/141/4
f 16/30/5 13/23/5 68/145/5 71/152/5
f 20/41/1 21/43/1 70/150/1 69/148/1
f 20/40/3 13/24/3 16/31/3 21/42/3
f 68/146/8 13/25/8 20/41/8 69/148/8
f 70/150/4 21/43/4 16/32/4 71/153/4
f 74/160/2 27/53/2 26/50/2 72/155/2
f 73/158/3 31/60/3 33/63/3 75/163/3
f 31/59/5 26/51/5 27/54/5 33/62/5
f 72/156/8 26/52/8 31/60/8 73/158/8
f 75/163/4 33/63/4 27/55/4 74/161/4
f 39/71/1 37/67/1 62/129/1 65/137/1
f 60/125/5 40/75/5 41/77/5 61/127/5
f 40/74/2 37/68/2 39/72/2 41/76/2
f 37/69/8 40/75/8 60/125/8 62/130/8
f 61/127/4 41/77/4 39/73/4 65/138/4
f 43/81/3 42/78/3 56/114/3 59/122/3
f 44/85/2 45/87/2 58/120/2 55/112/2
f 44/84/1 42/79/1 43/82/1 45/86/1
f 42/80/8 44/85/8 55/112/8 56/115/8
f 45/87/4 43/83/4 59/123/4 58/120/4
f 57/117/3 47/91/3 46/88/3 54/109/3
f 48/95/2 49/97/2 52/105/2 53/107/2
f 48/94/1 46/89/1 47/92/1 49/96/1
f 46/90/8 48/95/8 53/107/8 54/110/8
f 52/105/4 49/97/4 47/93/4 57/118/4
f 80/174/9 50/98/9 78/169/9 76/165/9
f 79/172/10 51/101/10 81/176/10 77/167/10
f 81/177/6 51/102/6 50/99/6 80/175/6
f 50/100/8 51/103/8 79/173/8 78/170/8
