# Blender 3.3.0
# www.blender.org
mtllib Building_10_Base_Extra (Red).mtl
o Building_10_Base_Extra_(Red)
v 0.400001 1.000000 -0.699999
v -0.800000 0.200000 0.800000
v 0.400002 0.496000 -0.700000
v -0.700000 1.200000 0.700000
v -0.800000 0.200000 -0.800000
v -0.700000 1.200000 -0.700000
v 0.100001 0.999999 -0.700000
v 0.800000 0.200000 -0.800000
v 0.700000 1.200000 -0.700000
v 0.100002 0.495999 -0.700000
v 0.800000 0.200000 0.100000
v 0.100000 0.200000 0.800000
v -0.500004 1.000001 0.699996
v 0.058579 1.200000 0.700000
v 0.700000 1.200000 0.058579
v -0.500002 0.496001 0.699999
v -0.800000 1.200000 0.800000
v -0.800000 1.200000 -0.800000
v 0.800000 1.200000 -0.800000
v -0.200004 1.000002 0.699997
v -0.200002 0.496002 0.700000
v 0.800000 1.200000 0.100000
v 0.100000 1.200000 0.800000
v -0.800000 1.300000 0.800000
v -0.800000 1.300000 -0.800000
v 0.699998 1.000003 -0.199999
v 0.700002 0.496003 -0.199998
v 0.800000 1.300000 -0.800000
v 0.800000 1.300000 0.100000
v 0.100000 1.300000 0.800000
v 0.699999 1.000002 -0.499999
v -0.700000 1.300000 0.700000
v 0.700002 0.496002 -0.499998
v -0.700000 1.300000 -0.700000
v 0.700000 1.300000 -0.700000
v 0.700000 1.300000 0.058579
v -0.099999 0.999998 -0.700001
v 0.058579 1.300000 0.700000
v -0.099998 0.495998 -0.700001
v -0.399999 0.999997 -0.700001
v -0.399998 0.495997 -0.700002
v -0.700000 0.999997 -0.400005
v -0.700000 0.495997 -0.400002
v -0.700000 0.999998 -0.100005
v -0.700000 0.495998 -0.100002
v -0.700002 0.999998 0.099995
v -0.700002 0.495999 0.099998
v -0.700001 0.999999 0.399996
v -0.700002 0.495999 0.399998
v 0.232606 1.000003 0.525967
v 0.545965 1.000004 0.212610
v -0.800000 0.496000 0.399998
v -0.800000 1.000000 0.399995
v -0.800000 0.999999 0.099995
v -0.800000 0.999998 -0.100005
v -0.800000 0.999997 -0.400005
v -0.800000 0.495999 0.099998
v -0.800000 0.495998 -0.100002
v -0.800000 0.495997 -0.400002
v -0.399999 0.999998 -0.800000
v -0.399998 0.495998 -0.800000
v -0.099999 0.999999 -0.800000
v 0.400001 1.000000 -0.800000
v 0.100001 0.999999 -0.800000
v -0.099998 0.495999 -0.800000
v 0.400002 0.496001 -0.800000
v 0.100002 0.496000 -0.800000
v -0.500005 1.000002 0.800000
v -0.200005 1.000003 0.800000
v -0.200002 0.496003 0.800000
v -0.500002 0.496002 0.800000
v 0.800000 1.000004 -0.199998
v 0.800000 1.000003 -0.499998
v 0.800000 0.496004 -0.199998
v 0.800000 0.496003 -0.499998
v 0.303319 0.200000 0.596681
v 0.616678 0.200000 0.283322
v 0.303319 1.000004 0.596681
v 0.616677 1.000005 0.283323
v 0.232610 0.200000 0.525971
v 0.545969 0.200000 0.212613
v -0.585127 1.177841 0.607129
v -0.585127 1.277842 0.607129
v -0.585127 1.177841 0.467129
v -0.585127 1.277842 0.467129
v -0.489127 1.177841 0.607129
v -0.489127 1.277842 0.607129
v -0.489127 1.177841 0.467129
v -0.489127 1.277842 0.467129
v -0.415496 1.177841 0.607129
v -0.415496 1.277842 0.607129
v -0.415496 1.177841 0.467129
v -0.415496 1.277842 0.467129
v -0.319496 1.177841 0.607129
v -0.319496 1.277842 0.607129
v -0.319496 1.177841 0.467129
v -0.319496 1.277842 0.467129
v 0.306884 1.177841 0.081978
v 0.306884 1.277842 0.081978
v 0.118659 1.177841 0.270203
v 0.118659 1.277842 0.270203
v 0.239002 1.177841 0.014096
v 0.239002 1.277842 0.014096
v 0.050776 1.177841 0.202321
v 0.050776 1.277842 0.202321
v 0.425417 1.177841 0.200511
v 0.425417 1.277842 0.200511
v 0.237192 1.177841 0.388737
v 0.237192 1.277842 0.388737
v 0.357535 1.177841 0.132629
v 0.357535 1.277842 0.132629
v 0.169309 1.177841 0.320854
v 0.169309 1.277842 0.320854
v -0.601094 1.177841 -0.251298
v -0.601094 1.277842 -0.251298
v -0.601094 1.177841 -0.601298
v -0.601094 1.277842 -0.601298
v -0.245894 1.177841 -0.251298
v -0.245894 1.277842 -0.251298
v -0.245894 1.177841 -0.601298
v -0.245894 1.277842 -0.601298
v 0.548933 1.177841 -0.414871
v 0.548933 1.277842 -0.414871
v 0.408933 1.177841 -0.414871
v 0.408933 1.277842 -0.414871
v 0.548933 1.177841 -0.510871
v 0.548933 1.277842 -0.510871
v 0.408933 1.177841 -0.510871
v 0.408933 1.277842 -0.510871
v 1.000000 0.200000 -1.000000
v 1.000000 0.000000 -1.000000
v 1.000000 0.200000 1.000000
v 1.000000 0.000000 1.000000
v -1.000000 0.200000 -1.000000
v -1.000000 0.000000 -1.000000
v -1.000000 0.200000 1.000000
v -1.000000 0.000000 1.000000
vn -1.0000 -0.0000 -0.0000
vn -0.0000 -0.0000 -1.0000
vn -0.0000 -0.0000 1.0000
vn -0.0000 1.0000 -0.0000
vn 1.0000 -0.0000 -0.0000
vn 0.7071 -0.0000 0.7071
vn -0.7071 -0.0000 -0.7071
vn -0.0000 -1.0000 -0.0000
vn 0.7071 -0.0000 -0.7071
vn -0.7071 -0.0000 0.7071
vt 0.816316 0.743157
vt 0.228477 0.908756
vt 0.228502 0.908781
vt 0.816164 0.743157
vt 0.228552 0.908756
vt 0.209151 0.676325
vt 0.622916 0.989207
vt 0.228502 0.908706
vt 0.209151 0.675987
vt 0.622916 0.989167
vt 0.816316 0.743309
vt 0.228502 0.908756
vt 0.228502 0.908731
vt 0.208813 0.675987
vt 0.622875 0.989167
vt 0.816316 0.743309
vt 0.228527 0.908756
vt 0.228502 0.908745
vt 0.228502 0.908767
vt 0.816316 0.743157
vt 0.228477 0.908756
vt 0.208967 0.676325
vt 0.622894 0.989207
vt 0.208813 0.676171
vt 0.622875 0.989189
vt 0.816164 0.743157
vt 0.228552 0.908756
vt 0.228527 0.908781
vt 0.622865 0.989240
vt 0.228527 0.908706
vt 0.622865 0.989240
vt 0.228527 0.908731
vt 0.622865 0.989240
vt 0.816316 0.743309
vt 0.228502 0.908756
vt 0.816164 0.743309
vt 0.228527 0.908756
vt 0.228527 0.908745
vt 0.622865 0.989240
vt 0.228527 0.908767
vt 0.622865 0.989240
vt 0.622865 0.989240
vt 0.622865 0.989240
vt 0.816316 0.743157
vt 0.228477 0.908756
vt 0.816164 0.743157
vt 0.228552 0.908756
vt 0.622865 0.989240
vt 0.622865 0.989240
vt 0.622865 0.989240
vt 0.816316 0.743309
vt 0.228502 0.908756
vt 0.622916 0.989207
vt 0.816164 0.743309
vt 0.228527 0.908756
vt 0.622916 0.989167
vt 0.622875 0.989167
vt 0.622875 0.989189
vt 0.816316 0.743157
vt 0.228477 0.908756
vt 0.622894 0.989207
vt 0.816164 0.743157
vt 0.228552 0.908756
vt 0.816316 0.743309
vt 0.228502 0.908756
vt 0.816316 0.743309
vt 0.228527 0.908756
vt 0.816316 0.743157
vt 0.228477 0.908756
vt 0.816164 0.743157
vt 0.228552 0.908756
vt 0.816316 0.743309
vt 0.228502 0.908756
vt 0.816164 0.743309
vt 0.228527 0.908756
vt 0.816316 0.743157
vt 0.228477 0.908756
vt 0.816164 0.743157
vt 0.228552 0.908756
vt 0.816316 0.743309
vt 0.228502 0.908756
vt 0.816164 0.743309
vt 0.228527 0.908756
vt 0.228502 0.908681
vt 0.186016 0.528114
vt 0.227846 0.918702
vt 0.228502 0.908756
vt 0.186016 0.527398
vt 0.228748 0.918702
vt 0.228527 0.908743
vt 0.228502 0.908743
vt 0.228477 0.908743
vt 0.228502 0.908743
vt 0.228477 0.908743
vt 0.228552 0.908743
vt 0.228527 0.908743
vt 0.228552 0.908743
vt 0.228502 0.908744
vt 0.228527 0.908744
vt 0.228477 0.908744
vt 0.228477 0.908743
vt 0.228502 0.908743
vt 0.228552 0.908744
vt 0.228552 0.908744
vt 0.228527 0.908744
vt 0.228477 0.908743
vt 0.228502 0.908743
vt 0.228527 0.908743
vt 0.228552 0.908743
vt 0.228477 0.908743
vt 0.228502 0.908743
vt 0.228552 0.908743
vt 0.228527 0.908743
vt 0.228522 0.908693
vt 0.228522 0.908743
vt 0.228502 0.908693
vt 0.227846 0.918251
vt 0.228502 0.908743
vt 0.228748 0.918251
vt 0.228522 0.908681
vt 0.186595 0.528114
vt 0.228522 0.908756
vt 0.186595 0.527398
vt 0.620467 0.988547
vt 0.620467 0.988077
vt 0.620349 0.988547
vt 0.620349 0.988077
vt 0.620232 0.988194
vt 0.620467 0.988429
vt 0.620349 0.988429
vt 0.620232 0.988312
vt 0.620467 0.988194
vt 0.620349 0.988194
vt 0.620467 0.988312
vt 0.620349 0.988312
vt 0.620467 0.988547
vt 0.620467 0.988077
vt 0.620349 0.988547
vt 0.620349 0.988077
vt 0.620232 0.988194
vt 0.620467 0.988429
vt 0.620349 0.988429
vt 0.620232 0.988312
vt 0.620467 0.988194
vt 0.620349 0.988194
vt 0.620467 0.988312
vt 0.620349 0.988312
vt 0.620467 0.988547
vt 0.620467 0.988077
vt 0.620349 0.988547
vt 0.620349 0.988077
vt 0.620232 0.988194
vt 0.620467 0.988429
vt 0.620349 0.988429
vt 0.620232 0.988312
vt 0.620467 0.988194
vt 0.620349 0.988194
vt 0.620467 0.988312
vt 0.620349 0.988312
vt 0.620467 0.988547
vt 0.620467 0.988077
vt 0.620349 0.988547
vt 0.620349 0.988077
vt 0.620232 0.988194
vt 0.620467 0.988429
vt 0.620349 0.988429
vt 0.620232 0.988312
vt 0.620467 0.988194
vt 0.620349 0.988194
vt 0.620467 0.988312
vt 0.620349 0.988312
vt 0.620467 0.988547
vt 0.620467 0.988077
vt 0.620349 0.988547
vt 0.620349 0.988077
vt 0.620232 0.988194
vt 0.620467 0.988429
vt 0.620349 0.988429
vt 0.620232 0.988312
vt 0.620467 0.988194
vt 0.620349 0.988194
vt 0.620467 0.988312
vt 0.620349 0.988312
vt 0.620467 0.988547
vt 0.620467 0.988077
vt 0.620349 0.988547
vt 0.620349 0.988077
vt 0.620232 0.988194
vt 0.620467 0.988429
vt 0.620349 0.988429
vt 0.620232 0.988312
vt 0.620467 0.988194
vt 0.620349 0.988194
vt 0.620467 0.988312
vt 0.620349 0.988312
vt 0.620078 0.984774
vt 0.619385 0.984774
vt 0.620078 0.985468
vt 0.619385 0.985468
vt 0.620772 0.984774
vt 0.620078 0.984080
vt 0.619385 0.984080
vt 0.620772 0.985468
vt 0.620078 0.986162
vt 0.620078 0.983387
vt 0.619385 0.986162
vt 0.619385 0.983387
s 0
usemtl Texture
f 53/91/1 17/28/1 18/30/1 56/94/1 55/93/1 54/92/1
f 18/30/1 5/8/1 2/3/1 17/28/1 53/91/1 52/90/1 57/95/1 54/92/1 55/93/1 58/96/1 59/97/1 56/94/1
f 18/30/2 19/32/2 63/101/2 64/102/2 62/100/2 60/98/2
f 63/101/2 19/32/2 8/13/2 5/8/2 18/30/2 60/98/2 61/99/2 65/103/2 62/100/2 64/102/2 67/105/2 66/104/2
f 68/106/3 17/28/3 2/3/3 12/19/3 23/40/3 69/107/3 70/108/3 71/109/3
f 69/107/3 23/40/3 17/28/3 68/106/3
f 15/24/4 9/14/4 6/9/4 4/6/4 14/22/4
f 22/38/5 11/18/5 8/13/5 19/32/5 73/111/5 75/113/5 74/112/5 72/110/5
f 73/111/5 19/32/5 22/38/5 72/110/5
f 77/115/6 11/18/6 22/38/6 23/40/6 12/19/6 76/114/6 78/116/6 79/118/6
f 19/33/2 18/31/2 25/43/2 28/48/2
f 4/7/5 6/10/5 34/56/5 32/53/5
f 9/15/1 15/25/1 36/58/1 35/57/1
f 17/29/3 23/41/3 30/50/3 24/42/3
f 23/41/6 22/39/6 29/49/6 30/50/6
f 32/53/4 34/56/4 25/43/4 24/42/4
f 34/56/4 35/57/4 28/48/4 25/43/4
f 36/58/4 38/61/4 30/50/4 29/49/4
f 35/57/4 36/58/4 29/49/4 28/48/4
f 38/61/4 32/53/4 24/42/4 30/50/4
f 14/23/2 4/7/2 32/53/2 38/61/2
f 18/31/1 17/29/1 24/42/1 25/43/1
f 6/10/3 9/15/3 35/57/3 34/56/3
f 22/39/5 19/33/5 28/48/5 29/49/5
f 15/25/7 14/23/7 38/61/7 36/58/7
f 66/104/1 3/5/1 1/2/1 63/101/1
f 64/102/5 7/12/5 10/17/5 67/105/5
f 7/11/2 1/1/2 3/4/2 10/16/2
f 1/2/8 7/12/8 64/102/8 63/101/8
f 67/105/4 10/17/4 3/5/4 66/104/4
f 16/27/5 13/21/5 68/106/5 71/109/5
f 20/35/1 21/37/1 70/108/1 69/107/1
f 20/34/3 13/20/3 16/26/3 21/36/3
f 68/106/8 13/21/8 20/35/8 69/107/8
f 70/108/4 21/37/4 16/27/4 71/109/4
f 74/112/2 27/47/2 26/45/2 72/110/2
f 73/111/3 31/52/3 33/55/3 75/113/3
f 31/51/5 26/44/5 27/46/5 33/54/5
f 72/110/8 26/45/8 31/52/8 73/111/8
f 75/113/4 33/55/4 27/47/4 74/112/4
f 39/63/1 37/60/1 62/100/1 65/103/1
f 60/98/5 40/65/5 41/67/5 61/99/5
f 40/64/2 37/59/2 39/62/2 41/66/2
f 37/60/8 40/65/8 60/98/8 62/100/8
f 61/99/4 41/67/4 39/63/4 65/103/4
f 43/71/3 42/69/3 56/94/3 59/97/3
f 44/73/2 45/75/2 58/96/2 55/93/2
f 44/72/1 42/68/1 43/70/1 45/74/1
f 42/69/8 44/73/8 55/93/8 56/94/8
f 45/75/4 43/71/4 59/97/4 58/96/4
f 57/95/3 47/79/3 46/77/3 54/92/3
f 48/81/2 49/83/2 52/90/2 53/91/2
f 48/80/1 46/76/1 47/78/1 49/82/1
f 46/77/8 48/81/8 53/91/8 54/92/8
f 52/90/4 49/83/4 47/79/4 57/95/4
f 80/120/9 50/84/9 78/116/9 76/114/9
f 79/118/10 51/87/10 81/122/10 77/115/10
f 81/123/6 51/88/6 50/85/6 80/121/6
f 50/86/8 51/89/8 79/119/8 78/117/8
f 82/124/1 83/126/1 85/130/1 84/129/1
f 84/129/2 85/130/2 89/135/2 88/134/2
f 88/134/5 89/135/5 87/133/5 86/132/5
f 86/132/3 87/133/3 83/127/3 82/125/3
f 89/135/4 85/131/4 83/128/4 87/133/4
f 90/136/1 91/138/1 93/142/1 92/141/1
f 92/141/2 93/142/2 97/147/2 96/146/2
f 96/146/5 97/147/5 95/145/5 94/144/5
f 94/144/3 95/145/3 91/139/3 90/137/3
f 97/147/4 93/143/4 91/140/4 95/145/4
f 98/148/6 99/150/6 101/154/6 100/153/6
f 100/153/10 101/154/10 105/159/10 104/158/10
f 104/158/7 105/159/7 103/157/7 102/156/7
f 102/156/9 103/157/9 99/151/9 98/149/9
f 105/159/4 101/155/4 99/152/4 103/157/4
f 106/160/6 107/162/6 109/166/6 108/165/6
f 108/165/10 109/166/10 113/171/10 112/170/10
f 112/170/7 113/171/7 111/169/7 110/168/7
f 110/168/9 111/169/9 107/163/9 106/161/9
f 113/171/4 109/167/4 107/164/4 111/169/4
f 114/172/1 115/174/1 117/178/1 116/177/1
f 116/177/2 117/178/2 121/183/2 120/182/2
f 120/182/5 121/183/5 119/181/5 118/180/5
f 118/180/3 119/181/3 115/175/3 114/173/3
f 121/183/4 117/179/4 115/176/4 119/181/4
f 122/184/3 123/186/3 125/190/3 124/189/3
f 124/189/1 125/190/1 129/195/1 128/194/1
f 128/194/2 129/195/2 127/193/2 126/192/2
f 126/192/5 127/193/5 123/187/5 122/185/5
f 129/195/4 125/191/4 123/188/4 127/193/4
f 130/196/4 134/200/4 136/203/4 132/198/4
f 133/199/3 132/198/3 136/204/3 137/206/3
f 137/207/1 136/205/1 134/201/1 135/202/1
f 131/197/5 130/196/5 132/198/5 133/199/5
f 135/202/2 134/201/2 130/196/2 131/197/2
